<svg id="arrow-up" width="18" height="18" viewBox="0 0 18 18" xmlns="http://www.w3.org/2000/svg">
<path d="M5.025 11.775C4.725 12.075 4.275 12.075 3.975 11.775C3.825 11.625 3.75 11.475 3.75 11.25C3.75 11.025 3.825 10.875 3.975 10.725L8.475 6.225C8.775 5.925 9.225 5.925 9.525 6.225L14.025 10.725C14.325 11.025 14.325 11.475 14.025 11.775C13.725 12.075 13.275 12.075 12.975 11.775L9 7.8L5.025 11.775Z" fill="currentColor"/>
<mask id="mask0" mask-type="alpha" maskUnits="userSpaceOnUse" x="3" y="6" width="12" height="6">
<path d="M5.025 11.775C4.725 12.075 4.275 12.075 3.975 11.775C3.825 11.625 3.75 11.475 3.75 11.25C3.75 11.025 3.825 10.875 3.975 10.725L8.475 6.225C8.775 5.925 9.225 5.925 9.525 6.225L14.025 10.725C14.325 11.025 14.325 11.475 14.025 11.775C13.725 12.075 13.275 12.075 12.975 11.775L9 7.8L5.025 11.775Z" fill="white"/>
</mask>
</svg>
