<svg width="32" height="32" viewBox="0 0 32 32" fill="currentColor" xmlns="http://www.w3.org/2000/svg">
<path fill-rule="evenodd" clip-rule="evenodd" d="M23.771 8.2146C19.4536 3.90525 12.524 3.91166 8.21462 8.229C3.90527 12.5463 3.91168 19.476 8.22902 23.7853C12.5464 28.0947 19.476 28.0883 23.7854 23.7709C28.0947 19.4536 28.0883 12.524 23.771 8.2146ZM9.64193 22.3698C6.10312 18.8376 6.09789 13.1807 9.63015 9.64191C13.1624 6.1031 18.8193 6.09787 22.3581 9.63013C25.8969 13.1624 25.9021 18.8192 22.3698 22.358C18.8376 25.8968 13.1807 25.9021 9.64193 22.3698ZM16.9909 16.989L20.2436 16.986C20.8092 16.9855 21.2331 16.5608 21.2326 15.9951C21.2321 15.4294 20.8074 15.0056 20.2417 15.0061L16.989 15.0091L16.986 11.7564C16.9855 11.1907 16.5608 10.7669 15.9952 10.7674C15.4295 10.7679 15.0056 11.1926 15.0061 11.7583L15.0091 15.0109L11.7564 15.014C11.1908 15.0145 10.7669 15.4391 10.7674 16.0048C10.7677 16.2877 10.8386 16.4997 11.0509 16.7117C11.2632 16.9236 11.4754 16.9941 11.7583 16.9939L15.011 16.9908L15.014 20.2435C15.0142 20.5264 15.0851 20.7384 15.2975 20.9504C15.5098 21.1623 15.722 21.2328 16.0048 21.2326C16.5705 21.232 16.9944 20.8074 16.9939 20.2417L16.9909 16.989Z"/>
<mask id="mask0" mask-type="alpha" maskUnits="userSpaceOnUse" x="0" y="0" width="32" height="32">
<path fill-rule="evenodd" clip-rule="evenodd" d="M23.7782 8.22184C19.4648 3.90849 12.5352 3.90849 8.22183 8.22184C3.90847 12.5352 3.90847 19.4648 8.22183 23.7782C12.5352 28.0915 19.4648 28.0915 23.7782 23.7782C28.0915 19.4648 28.0915 12.5352 23.7782 8.22184ZM9.63604 22.364C6.10051 18.8284 6.10051 13.1716 9.63604 9.63605C13.1716 6.10052 18.8284 6.10052 22.364 9.63605C25.8995 13.1716 25.8995 18.8284 22.364 22.364C18.8284 25.8995 13.1716 25.8995 9.63604 22.364ZM16.9899 16.99H20.2426C20.8083 16.99 21.2326 16.5657 21.2326 16C21.2326 15.4343 20.8083 15.0101 20.2426 15.0101H16.9899V11.7574C16.9899 11.1917 16.5657 10.7674 16 10.7674C15.4343 10.7674 15.0101 11.1917 15.0101 11.7574V15.0101H11.7574C11.1917 15.0101 10.7674 15.4343 10.7674 16C10.7674 16.2829 10.8381 16.495 11.0503 16.7071C11.2624 16.9193 11.4745 16.99 11.7574 16.99H15.0101V20.2427C15.0101 20.5255 15.0808 20.7376 15.2929 20.9498C15.505 21.1619 15.7172 21.2326 16 21.2326C16.5657 21.2326 16.9899 20.8083 16.9899 20.2427V16.99Z" />
</mask>
<g mask="url(#mask0)">
<rect x="4" y="4" width="24" height="24" fill="#5D5FEF"/>
</g>
</svg>
