<svg id="plusInCircle" width="24" height="24" viewBox="0 0 24 24" fill="currentColor" xmlns="http://www.w3.org/2000/svg">
<path fill-rule="evenodd" clip-rule="evenodd" d="M19.771 4.2146C15.4536 -0.0947516 8.52398 -0.088337 4.21462 4.229C-0.0947319 8.54635 -0.088317 15.476 4.22902 19.7853C8.54637 24.0947 15.476 24.0883 19.7854 19.7709C24.0947 15.4536 24.0883 8.52396 19.771 4.2146ZM5.64193 18.3698C2.10312 14.8376 2.09789 9.18071 5.63015 5.64191C9.16241 2.1031 14.8193 2.09787 18.3581 5.63013C21.8969 9.16239 21.9021 14.8192 18.3698 18.358C14.8376 21.8968 9.18073 21.9021 5.64193 18.3698ZM12.9909 12.989L16.2436 12.986C16.8092 12.9855 17.2331 12.5608 17.2326 11.9951C17.2321 11.4294 16.8074 11.0056 16.2417 11.0061L12.989 11.0091L12.986 7.75642C12.9855 7.19074 12.5608 6.76686 11.9952 6.76739C11.4295 6.76791 11.0056 7.19257 11.0061 7.75825L11.0091 11.0109L7.75644 11.014C7.19076 11.0145 6.76688 11.4391 6.76741 12.0048C6.76767 12.2877 6.83858 12.4997 7.05091 12.7117C7.26323 12.9236 7.47543 12.9941 7.75827 12.9939L11.011 12.9908L11.014 16.2435C11.0142 16.5264 11.0851 16.7384 11.2975 16.9504C11.5098 17.1623 11.722 17.2328 12.0048 17.2326C12.5705 17.232 12.9944 16.8074 12.9939 16.2417L12.9909 12.989Z" />
</svg>
